<svg width="29" height="50" viewBox="0 0 29 50" fill="none" xmlns="http://www.w3.org/2000/svg">
<path d="M27.6789 0H1.32112C0.591537 0 0 3.38604 0 7.56227V24.3378C0 28.514 0.591537 31.9001 1.32112 31.9001H2.85312V49.3918L6.01288 31.9001H27.6789C28.4085 31.9001 29 28.514 29 24.3378V7.56227C28.9994 3.38268 28.4085 0 27.6789 0Z" fill="#1677BD"/>
<path d="M4.78079 9.78519C4.883 10.0172 4.97523 10.4274 5.05805 11.0091C5.12502 11.4833 5.17025 12.0683 5.19375 12.7576C5.20843 13.2149 5.21548 13.8874 5.21548 14.7718L5.21137 23.3596H4.57343V14.6844C4.57343 14.1665 4.55874 13.7429 4.52996 13.41C4.47474 12.7778 4.37253 12.4584 4.2245 12.4584C4.05238 12.4584 3.93431 12.8652 3.86852 13.6823C3.83503 14.1161 3.81859 14.6373 3.81859 15.2459V23.3596H3.1918V15.2459C3.1918 14.4389 3.17712 13.8505 3.14833 13.4839C3.09605 12.8249 2.99325 12.4954 2.84052 12.4954C2.66312 12.4954 2.54329 12.8249 2.48219 13.4839C2.44871 13.8605 2.43168 14.4187 2.43168 15.1585V23.3596H1.80078V9.75829H2.40583V11.7455C2.48278 11.036 2.55562 10.5317 2.62435 10.2324C2.74536 9.69777 2.90162 9.43213 3.0937 9.43213C3.27581 9.43213 3.42266 9.66078 3.53486 10.1181C3.62532 10.5418 3.69346 11.0898 3.73987 11.7556C3.82152 10.9553 3.92256 10.3669 4.04357 9.99367C4.17163 9.61707 4.31437 9.43213 4.4718 9.43213C4.57519 9.43549 4.67858 9.55318 4.78079 9.78519Z" fill="white"/>
<path d="M5.8825 25.9753L5.96122 25.9988C6.02231 26.0157 6.08046 26.0022 6.13568 25.9619C6.1909 25.9215 6.23789 25.824 6.27549 25.676C6.31191 25.5348 6.34598 25.2389 6.37711 24.7884C6.40825 24.3378 6.42176 24.0621 6.41765 23.9645L5.54297 9.73779H6.23554L6.75541 19.7883L7.2465 9.73779H7.90794L7.09201 23.1374C6.93458 25.7198 6.80946 27.3237 6.71782 27.9424C6.62618 28.5644 6.44232 28.8738 6.16681 28.8738C6.1116 28.8738 6.06695 28.8704 6.03347 28.8671C5.99999 28.8637 5.94947 28.8469 5.8825 28.8234V25.9753Z" fill="white"/>
<path d="M9.26073 4.76816C9.29245 4.78161 9.33651 4.79842 9.39173 4.82532V7.72716C9.35648 7.70362 9.29832 7.68344 9.21609 7.66999C9.13385 7.65654 9.07687 7.76078 9.04573 7.98271C9.0146 8.20464 8.99874 8.44673 8.99874 8.71237C8.99874 8.97801 8.99874 9.36133 8.99874 9.86235H9.407V12.3741H8.99874V23.3628H8.38077V12.3741H8.03125V9.86235H8.37196V8.98809C8.37196 7.52877 8.41484 6.52675 8.5006 5.9753C8.59107 5.15821 8.80841 4.75135 9.15382 4.75135C9.19318 4.74798 9.22842 4.75471 9.26073 4.76816Z" fill="white"/>
<path d="M11.3149 10.0103C11.4812 10.4374 11.6181 11.1065 11.7261 12.0245C11.8237 12.8348 11.8871 13.773 11.9159 14.8423C11.9329 15.4677 11.9394 16.3688 11.9364 17.5457H10.203C10.2129 18.9109 10.2958 19.8692 10.452 20.4206C10.5472 20.7636 10.6617 20.9318 10.7951 20.9318C10.9366 20.9318 11.0518 20.7233 11.1405 20.3063C11.1887 20.081 11.2315 19.7683 11.2685 19.3682H11.9041C11.8871 20.1752 11.8101 20.999 11.6733 21.8295C11.46 23.1544 11.1616 23.8168 10.7775 23.8168C10.4608 23.8168 10.1812 23.2586 9.9392 22.1389C9.69718 21.0225 9.57617 19.2034 9.57617 16.6849C9.57617 14.3244 9.68543 12.5154 9.90395 11.2545C10.1225 9.99354 10.4062 9.36475 10.7551 9.36475C10.9625 9.37483 11.1487 9.58667 11.3149 10.0103ZM10.3839 13.0904C10.2958 13.6082 10.2405 14.311 10.2182 15.1987H11.2903C11.2791 14.2538 11.2239 13.5342 11.1246 13.0467C11.0253 12.5558 10.9026 12.3137 10.7557 12.3137C10.5959 12.3103 10.472 12.5692 10.3839 13.0904Z" fill="white"/>
<path d="M13.8032 10.0103C13.9695 10.4374 14.1063 11.1065 14.2144 12.0245C14.3119 12.8348 14.3754 13.773 14.4042 14.8423C14.4212 15.4677 14.4277 16.3688 14.4247 17.5457H12.6912C12.7012 18.9109 12.784 19.8692 12.9403 20.4206C13.0355 20.7636 13.15 20.9318 13.2834 20.9318C13.4249 20.9318 13.5401 20.7233 13.6288 20.3063C13.6769 20.081 13.7198 19.7683 13.7568 19.3682H14.3924C14.3754 20.1752 14.2984 20.999 14.1616 21.8295C13.9483 23.1544 13.6499 23.8168 13.2657 23.8168C12.9491 23.8168 12.6695 23.2586 12.4275 22.1389C12.1855 21.0225 12.0645 19.2034 12.0645 16.6849C12.0645 14.3244 12.1737 12.5154 12.3922 11.2545C12.6108 9.99354 12.8945 9.36475 13.2434 9.36475C13.4508 9.37483 13.6376 9.58667 13.8032 10.0103ZM12.8722 13.0904C12.784 13.6082 12.7288 14.311 12.7065 15.1987H13.7786C13.7674 14.2538 13.7122 13.5342 13.6129 13.0467C13.5136 12.5558 13.3909 12.3137 13.244 12.3137C13.0842 12.3103 12.9603 12.5692 12.8722 13.0904Z" fill="white"/>
<path d="M16.001 9.95328C16.1132 10.3164 16.2043 10.8174 16.2742 11.4597V4.95996H16.9051V23.3596H16.3V21.4732C16.2113 22.2802 16.1103 22.8686 15.9963 23.2352C15.883 23.6017 15.7414 23.7866 15.5728 23.7866C15.295 23.7866 15.0606 23.1444 14.8708 21.8565C14.6811 20.5687 14.5859 18.9177 14.5859 16.9002C14.5859 14.5767 14.6793 12.7475 14.8667 11.4126C15.0535 10.0811 15.3038 9.41192 15.6169 9.41192C15.7608 9.41192 15.8888 9.59349 16.001 9.95328ZM16.1538 19.6608C16.2454 18.911 16.2912 17.9392 16.2912 16.7489C16.2912 15.0811 16.2178 13.8908 16.0709 13.1746C15.9805 12.7408 15.8759 12.5256 15.7567 12.5256C15.5746 12.5256 15.4412 12.919 15.3561 13.7058C15.2709 14.4927 15.228 15.4711 15.228 16.6379C15.228 17.8955 15.2715 18.9009 15.3578 19.6575C15.4442 20.4107 15.5757 20.7873 15.752 20.7873C15.9282 20.7873 16.0621 20.4107 16.1538 19.6608Z" fill="white"/>
<path d="M19.504 11.3723C19.682 12.6635 19.7713 14.3313 19.7713 16.3723C19.7713 18.4907 19.6832 20.2425 19.5076 21.6346C19.3319 23.0267 19.087 23.7227 18.7721 23.7227C18.5747 23.7227 18.4155 23.4974 18.2957 23.0469C18.224 22.7812 18.1465 22.3138 18.0631 21.6481V23.3596H17.4492V4.95996H18.0719V11.5101C18.1512 10.878 18.2381 10.3938 18.3333 10.0609C18.4461 9.64393 18.59 9.43545 18.7639 9.43545C19.0793 9.43545 19.326 10.081 19.504 11.3723ZM18.9836 19.6743C19.0729 18.9312 19.1181 17.956 19.1181 16.7489C19.1181 15.7805 19.0958 14.9836 19.0523 14.3481C18.9689 13.1477 18.8144 12.5491 18.59 12.5491C18.3627 12.5491 18.2058 13.1376 18.1212 14.3111C18.0772 14.9365 18.0549 15.7435 18.0549 16.7354C18.0549 17.9022 18.1001 18.8673 18.1911 19.6339C18.2822 20.4006 18.4208 20.7839 18.607 20.7839C18.7686 20.7873 18.8943 20.4174 18.9836 19.6743Z" fill="white"/>
<path d="M21.146 15.0741C21.2617 14.99 21.3445 14.8858 21.3944 14.7614C21.4837 14.5462 21.5284 14.2065 21.5284 13.7492C21.5284 13.1911 21.4943 12.8044 21.4256 12.5925C21.3568 12.3807 21.2564 12.2731 21.1236 12.2731C20.9744 12.2731 20.8693 12.4816 20.807 12.8985C20.763 13.2079 20.733 13.6248 20.7183 14.1494H20.118C20.1309 12.9591 20.1896 11.9772 20.2936 11.2106C20.4587 10.0101 20.7424 9.41162 21.1448 9.41162C21.4068 9.41162 21.6388 9.70752 21.8421 10.2993C22.0453 10.8911 22.1469 12.0075 22.1469 13.6484V19.8993C22.1469 20.333 22.1481 20.8576 22.151 21.4729C22.1552 21.9403 22.1681 22.2564 22.1881 22.4245C22.2086 22.5926 22.2392 22.7271 22.2797 22.8381V23.3626H21.603C21.5842 23.0869 21.5713 22.828 21.5636 22.5893C21.5566 22.3472 21.5507 22.0714 21.546 21.7655C21.4596 22.3001 21.3598 22.754 21.247 23.1273C21.1125 23.5678 20.9597 23.7897 20.79 23.7897C20.5732 23.7897 20.3941 23.4366 20.2531 22.7339C20.1115 22.0311 20.041 21.0324 20.041 19.7412C20.041 18.0667 20.155 16.8528 20.3823 16.103C20.5068 15.6961 20.6901 15.4036 20.9321 15.2287L21.146 15.0741ZM21.526 16.7352C21.4861 16.8764 21.4461 16.9907 21.4056 17.0781C21.3651 17.1655 21.3093 17.2462 21.2388 17.3202L21.0972 17.4715C20.9644 17.606 20.8693 17.7674 20.8111 17.9591C20.713 18.2853 20.6643 18.7896 20.6643 19.4722C20.6643 20.0808 20.6942 20.5213 20.7541 20.7903C20.8141 21.0627 20.8869 21.1972 20.9727 21.1972C21.109 21.1972 21.2341 20.9719 21.3486 20.5213C21.4632 20.0708 21.5225 19.2503 21.5272 18.06V16.7352H21.526Z" fill="white"/>
<path d="M24.1137 14.6236C24.102 14.1158 24.072 13.6585 24.0238 13.2483C23.9539 12.6968 23.8453 12.4245 23.6978 12.4245C23.4875 12.4245 23.3436 13.0196 23.2666 14.2133C23.2255 14.8455 23.2056 15.6861 23.2056 16.7318C23.2056 17.7305 23.2261 18.5308 23.2666 19.1394C23.3412 20.2726 23.4811 20.8408 23.6867 20.8408C23.8323 20.8408 23.9363 20.6155 23.9974 20.165C24.0585 19.7144 24.0961 19.1327 24.109 18.4165H24.7446C24.7299 19.4992 24.6618 20.5247 24.539 21.4931C24.344 23.05 24.0544 23.8301 23.6714 23.8301C23.2884 23.8301 23.0058 23.1811 22.8255 21.8798C22.6446 20.5785 22.5547 18.8939 22.5547 16.8226C22.5547 14.4857 22.6545 12.6666 22.8543 11.3653C23.054 10.064 23.3295 9.41504 23.6808 9.41504C23.9798 9.41504 24.2241 9.79836 24.4145 10.565C24.6048 11.3317 24.717 12.6868 24.7522 14.6269H24.1137V14.6236Z" fill="white"/>
<path d="M25.1699 4.99707H25.7814V14.9366L26.5662 9.79872H27.3405L26.4875 14.8761L27.3739 23.3631H26.6162L26.0393 17.5426L25.7814 19.0759V23.3631H25.1699V4.99707Z" fill="white"/>
</svg>
